<svg width="20" height="20" viewBox="0 0 20 20" fill="none" xmlns="http://www.w3.org/2000/svg">
<path d="M9.5268 0.309242C9.57062 0.216395 9.63832 0.13824 9.72225 0.0835975C9.80618 0.0289551 9.90301 0 10.0018 0C10.1006 0 10.1974 0.0289551 10.2813 0.0835975C10.3653 0.13824 10.433 0.216395 10.4768 0.309242L12.7868 5.21589C12.939 5.53885 13.1636 5.81825 13.4414 6.03013C13.7192 6.242 14.0419 6.38002 14.3818 6.43233L19.5478 7.22512C19.6457 7.23999 19.7376 7.28329 19.8133 7.35011C19.8889 7.41694 19.9452 7.50463 19.9758 7.60327C20.0064 7.7019 20.0101 7.80754 19.9864 7.90825C19.9627 8.00895 19.9126 8.10069 19.8418 8.1731L16.1058 11.9881C15.8594 12.2399 15.6751 12.5507 15.5686 12.8938C15.4622 13.2368 15.4369 13.6019 15.4948 13.9575L16.3768 19.3476C16.3941 19.4502 16.3835 19.5558 16.3463 19.6524C16.3091 19.749 16.2467 19.8327 16.1663 19.8939C16.086 19.9551 15.9908 19.9914 15.8917 19.9987C15.7926 20.0059 15.6935 19.9838 15.6058 19.9348L10.9878 17.3887C10.6835 17.2211 10.345 17.1336 10.0013 17.1336C9.65762 17.1336 9.31908 17.2211 9.0148 17.3887L4.3978 19.9348C4.31013 19.9835 4.2112 20.0054 4.11225 19.998C4.0133 19.9906 3.91832 19.9543 3.83809 19.8931C3.75787 19.8319 3.69563 19.7483 3.65846 19.6519C3.62128 19.5555 3.61066 19.45 3.6278 19.3476L4.5088 13.9585C4.567 13.6027 4.54178 13.2375 4.43534 12.8942C4.32889 12.5509 4.14441 12.2399 3.8978 11.9881L0.1618 8.17415C0.0903935 8.10182 0.0397929 8.00992 0.0157621 7.90892C-0.00826864 7.80791 -0.00476337 7.70185 0.0258785 7.60283C0.0565203 7.50381 0.113067 7.4158 0.189076 7.34884C0.265086 7.28187 0.357503 7.23864 0.4558 7.22407L5.6208 6.43233C5.96106 6.38042 6.28419 6.24259 6.56238 6.03068C6.84058 5.81878 7.0655 5.53916 7.2178 5.21589L9.5268 0.309242Z" fill="#FF9D00"/>
</svg>
